<?xml version="1.0" standalone="no"?><!DOCTYPE svg PUBLIC "-//W3C//DTD SVG 1.1//EN" "http://www.w3.org/Graphics/SVG/1.1/DTD/svg11.dtd"><svg t="1650123810866" class="icon" viewBox="0 0 1024 1024" version="1.1" xmlns="http://www.w3.org/2000/svg" p-id="15207" xmlns:xlink="http://www.w3.org/1999/xlink" width="200" height="200"><defs><style type="text/css">@font-face { font-family: feedback-iconfont; src: url("//at.alicdn.com/t/font_1031158_u69w8yhxdu.woff2?t=1630033759944") format("woff2"), url("//at.alicdn.com/t/font_1031158_u69w8yhxdu.woff?t=1630033759944") format("woff"), url("//at.alicdn.com/t/font_1031158_u69w8yhxdu.ttf?t=1630033759944") format("truetype"); }
</style></defs><path d="M669.44 627.2l-90.88 181.76h90.88V947.2l92.16-183.04h-92.16zM825.6 753.92c-3.84-23.04-14.08-37.12-15.36-38.4-3.84-5.12-8.96-7.68-16.64-7.68-11.52 0-20.48 8.96-20.48 20.48 0 3.84 1.28 8.96 3.84 11.52 0 0 5.12 8.96 7.68 21.76 3.84 20.48-1.28 42.24-14.08 64-2.56 2.56-2.56 6.4-2.56 10.24 0 11.52 8.96 20.48 20.48 20.48 7.68 0 14.08-3.84 16.64-10.24 24.32-38.4 24.32-71.68 20.48-92.16z" p-id="15208"></path><path d="M902.4 807.68c6.4-25.6 5.12-52.48-1.28-76.8-11.52-42.24-39.68-67.84-40.96-69.12-3.84-3.84-7.68-5.12-14.08-5.12-11.52 0-20.48 8.96-20.48 20.48 0 6.4 2.56 11.52 6.4 15.36 0 0 20.48 20.48 29.44 52.48 11.52 42.24-2.56 87.04-42.24 133.12-2.56 3.84-5.12 7.68-5.12 12.8 0 11.52 8.96 20.48 20.48 20.48 6.4 0 11.52-2.56 15.36-6.4 28.16-33.28 44.8-65.28 52.48-97.28z" p-id="15209"></path><path d="M985.6 748.8c-6.4-46.08-26.88-92.16-60.16-135.68-3.84-5.12-8.96-7.68-15.36-7.68-11.52 0-20.48 8.96-20.48 20.48 0 5.12 1.28 8.96 3.84 12.8C945.92 705.28 960 774.4 934.4 844.8c-19.2 53.76-56.32 88.32-56.32 88.32-3.84 3.84-6.4 8.96-6.4 14.08 0 11.52 8.96 20.48 20.48 20.48 5.12 0 10.24-2.56 14.08-5.12 1.28-1.28 43.52-39.68 66.56-102.4 12.8-37.12 16.64-74.24 12.8-111.36zM510.72 883.2c-5.12 0-8.96 1.28-12.8 1.28V686.08H512c12.8 0 24.32-10.24 24.32-23.04s-10.24-21.76-21.76-23.04h-16.64v-121.6h171.52v14.08c0 12.8 10.24 24.32 23.04 24.32 11.52 0 21.76-8.96 23.04-21.76v-17.92h151.04c0 5.12-1.28 10.24-1.28 15.36-1.28 6.4 1.28 12.8 5.12 17.92 3.84 5.12 10.24 7.68 16.64 7.68 11.52 0 21.76-8.96 21.76-20.48 1.28-14.08 2.56-28.16 2.56-42.24 1.28-58.88-10.24-116.48-34.56-170.24-23.04-52.48-53.76-99.84-94.72-139.52-40.96-40.96-87.04-71.68-139.52-94.72-53.76-23.04-110.08-34.56-170.24-34.56-55.04-1.28-113.92 11.52-167.68 33.28-52.48 23.04-99.84 53.76-139.52 94.72-16.64 16.64-29.44 32-42.24 48.64 0 0-1.28 1.28-1.28 2.56-20.48 26.88-35.84 56.32-49.92 88.32-23.04 53.76-34.56 111.36-34.56 170.24s11.52 116.48 34.56 170.24C94.72 716.8 125.44 764.16 166.4 803.84c40.96 39.68 87.04 71.68 139.52 94.72 66.56 28.16 139.52 39.68 211.2 32 12.8-1.28 21.76-11.52 21.76-23.04 0-6.4-2.56-12.8-7.68-17.92-6.4-5.12-12.8-7.68-20.48-6.4z m293.12-604.16c37.12 56.32 60.16 122.88 64 193.28H716.8c-1.28-53.76-8.96-104.96-19.2-153.6 38.4-11.52 75.52-24.32 106.24-39.68z m-51.2-62.72c7.68 7.68 15.36 16.64 23.04 24.32-26.88 12.8-56.32 23.04-90.88 32-10.24-29.44-21.76-57.6-34.56-83.2-12.8-25.6-28.16-47.36-43.52-65.28 53.76 19.2 103.68 49.92 145.92 92.16zM499.2 104.96c16.64 3.84 32 11.52 47.36 24.32 23.04 19.2 44.8 46.08 62.72 81.92 11.52 23.04 21.76 46.08 29.44 71.68-46.08 8.96-93.44 14.08-140.8 15.36V104.96z m0 239.36c53.76-1.28 104.96-6.4 153.6-16.64 10.24 44.8 16.64 93.44 17.92 143.36H499.2v-126.72z m-302.08-128c42.24-42.24 92.16-72.96 147.2-92.16-16.64 17.92-30.72 40.96-43.52 65.28-12.8 25.6-24.32 53.76-34.56 83.2-34.56-8.96-64-19.2-90.88-32 7.68-7.68 14.08-15.36 21.76-24.32z m-49.92 62.72c30.72 16.64 66.56 29.44 107.52 39.68-11.52 48.64-17.92 99.84-19.2 153.6H84.48c2.56-70.4 25.6-136.96 62.72-193.28z m-2.56 427.52c-35.84-56.32-57.6-121.6-61.44-189.44h151.04c1.28 49.92 7.68 99.84 17.92 148.48-39.68 11.52-75.52 25.6-107.52 40.96z m52.48 65.28c-8.96-8.96-16.64-17.92-24.32-28.16 29.44-14.08 60.16-25.6 92.16-33.28 10.24 32 21.76 61.44 35.84 88.32 12.8 25.6 28.16 47.36 43.52 65.28-55.04-19.2-103.68-49.92-147.2-92.16z m256 111.36c-16.64-3.84-32-11.52-47.36-24.32-23.04-19.2-44.8-46.08-62.72-81.92-11.52-23.04-23.04-48.64-30.72-76.8 43.52-8.96 92.16-14.08 140.8-15.36V883.2z m0-243.2c-53.76 1.28-104.96 6.4-154.88 16.64-10.24-42.24-16.64-89.6-16.64-138.24h171.52V640z m0-168.96H281.6c1.28-49.92 7.68-98.56 17.92-143.36 48.64 10.24 99.84 15.36 153.6 16.64v126.72z m0-172.8c-47.36-1.28-93.44-6.4-140.8-15.36 8.96-25.6 17.92-49.92 29.44-71.68 17.92-35.84 39.68-62.72 62.72-81.92 15.36-12.8 30.72-20.48 47.36-24.32v193.28z m0 0" p-id="15210"></path></svg>